# xmcd
#
# Track frame offsets: 
#        150
#        31836
#        58513
#        98971
#        135436
#        175336
#        203720
#        244680
#
# Disc length: 3851 seconds
#
# Revision: 4
# Processed by: cddbd v1.5.2PL0 Copyright (c) Steve Scherf et al.
# Submitted via: ExactAudioCopyFreeDBPlugin 1.0
#
DISCID=630f0908
DTITLE=Andreas Fröhlich - Eragon [CD17)
DYEAR=2005
DGENRE=Hörbuch
TTITLE0=Die Schatten werden länger (Teil 3)
TTITLE1=Die Schatten werden länger (Teil 4)
TTITLE2=Die Schlacht unter Farthen Dûr (Teil 1)
TTITLE3=Die Schlacht unter Farthen Dûr (Teil 2)
TTITLE4=Die Schlacht unter Farthen Dûr (Teil 3)
TTITLE5=Die Schlacht unter Farthen Dûr (Teil 4)
TTITLE6=Der trauernde Weise (Teil 1)
TTITLE7=Der trauernde Weise (Teil 2)
EXTD=
EXTT0=
EXTT1=
EXTT2=
EXTT3=
EXTT4=
EXTT5=
EXTT6=
EXTT7=
PLAYORDER=
